<svg version="1.1" viewBox="0.0 0.0 960.0 720.0" fill="none" stroke="none" stroke-linecap="square" stroke-miterlimit="10" xmlns:xlink="http://www.w3.org/1999/xlink" xmlns="http://www.w3.org/2000/svg"><clipPath id="p.0"><path d="m0 0l960.0 0l0 720.0l-960.0 0l0 -720.0z" clip-rule="nonzero"/></clipPath><g clip-path="url(#p.0)"><path fill="#000000" fill-opacity="0.0" d="m0 0l960.0 0l0 720.0l-960.0 0z" fill-rule="evenodd"/><path fill="#ffffff" d="m196.36646 358.72205l0 0c0 -146.99338 128.50247 -266.15503 287.0183 -266.15503l0 0c158.51581 0 287.0183 119.16167 287.0183 266.15503l0 0c0 146.99338 -128.5025 266.15503 -287.0183 266.15503l0 0c-158.51584 0 -287.0183 -119.16165 -287.0183 -266.15503z" fill-rule="evenodd"/><path stroke="#000000" stroke-width="8.0" stroke-linejoin="round" stroke-linecap="butt" d="m196.36646 358.72205l0 0c0 -146.99338 128.50247 -266.15503 287.0183 -266.15503l0 0c158.51581 0 287.0183 119.16167 287.0183 266.15503l0 0c0 146.99338 -128.5025 266.15503 -287.0183 266.15503l0 0c-158.51584 0 -287.0183 -119.16165 -287.0183 -266.15503z" fill-rule="evenodd"/><path fill="#000000" fill-opacity="0.0" d="m483.38477 92.567l287.02362 266.14172" fill-rule="evenodd"/><path stroke="#000000" stroke-width="3.0" stroke-linejoin="round" stroke-linecap="butt" d="m483.38477 92.567l287.02362 266.14172" fill-rule="evenodd"/><path fill="#ffffff" d="m453.97278 92.90923l0 0c0 -14.859436 13.168182 -26.905396 29.411987 -26.905396l0 0c16.243774 0 29.411987 12.045959 29.411987 26.905396l0 0c0 14.859444 -13.168213 26.905396 -29.411987 26.905396l0 0c-16.243805 0 -29.411987 -12.045952 -29.411987 -26.905396z" fill-rule="evenodd"/><path stroke="#000000" stroke-width="4.0" stroke-linejoin="round" stroke-linecap="butt" d="m453.97278 92.90923l0 0c0 -14.859436 13.168182 -26.905396 29.411987 -26.905396l0 0c16.243774 0 29.411987 12.045959 29.411987 26.905396l0 0c0 14.859444 -13.168213 26.905396 -29.411987 26.905396l0 0c-16.243805 0 -29.411987 -12.045952 -29.411987 -26.905396z" fill-rule="evenodd"/><path fill="#000000" fill-opacity="0.0" d="m196.36646 358.72205l287.02362 266.14172" fill-rule="evenodd"/><path stroke="#000000" stroke-width="3.0" stroke-linejoin="round" stroke-linecap="butt" d="m196.36646 358.72205l287.02362 266.14172" fill-rule="evenodd"/><path fill="#ffffff" d="m163.99803 358.72205l0 0c0 -14.859436 13.168198 -26.905396 29.411987 -26.905396l0 0c16.24379 0 29.411987 12.045959 29.411987 26.905396l0 0c0 14.859436 -13.168198 26.905396 -29.411987 26.905396l0 0c-16.24379 0 -29.411987 -12.045959 -29.411987 -26.905396z" fill-rule="evenodd"/><path stroke="#000000" stroke-width="4.0" stroke-linejoin="round" stroke-linecap="butt" d="m163.99803 358.72205l0 0c0 -14.859436 13.168198 -26.905396 29.411987 -26.905396l0 0c16.24379 0 29.411987 12.045959 29.411987 26.905396l0 0c0 14.859436 -13.168198 26.905396 -29.411987 26.905396l0 0c-16.24379 0 -29.411987 -12.045959 -29.411987 -26.905396z" fill-rule="evenodd"/><path fill="#ffffff" d="m453.97278 627.0915l0 0c0 -14.859436 13.168182 -26.905396 29.411987 -26.905396l0 0c16.243774 0 29.411987 12.045959 29.411987 26.905396l0 0c0 14.859436 -13.168213 26.905396 -29.411987 26.905396l0 0c-16.243805 0 -29.411987 -12.045959 -29.411987 -26.905396z" fill-rule="evenodd"/><path stroke="#000000" stroke-width="4.0" stroke-linejoin="round" stroke-linecap="butt" d="m453.97278 627.0915l0 0c0 -14.859436 13.168182 -26.905396 29.411987 -26.905396l0 0c16.243774 0 29.411987 12.045959 29.411987 26.905396l0 0c0 14.859436 -13.168213 26.905396 -29.411987 26.905396l0 0c-16.243805 0 -29.411987 -12.045959 -29.411987 -26.905396z" fill-rule="evenodd"/><path fill="#ffffff" d="m737.17615 358.72205l0 0c0 -14.859436 13.168213 -26.905396 29.411987 -26.905396l0 0c16.243774 0 29.411987 12.045959 29.411987 26.905396l0 0c0 14.859436 -13.168213 26.905396 -29.411987 26.905396l0 0c-16.243774 0 -29.411987 -12.045959 -29.411987 -26.905396z" fill-rule="evenodd"/><path stroke="#000000" stroke-width="4.0" stroke-linejoin="round" stroke-linecap="butt" d="m737.17615 358.72205l0 0c0 -14.859436 13.168213 -26.905396 29.411987 -26.905396l0 0c16.243774 0 29.411987 12.045959 29.411987 26.905396l0 0c0 14.859436 -13.168213 26.905396 -29.411987 26.905396l0 0c-16.243774 0 -29.411987 -12.045959 -29.411987 -26.905396z" fill-rule="evenodd"/><path fill="#000000" fill-opacity="0.0" d="m280.0 164.0l400.0 0l0 392.0l-400.0 0z" fill-rule="evenodd"/><path fill="#000000" d="m465.07874 449.53436q-13.078125 0 -24.546875 -6.53125q-11.46875 -6.53125 -18.375 -17.875l3.453125 -2.96875q7.15625 10.859375 17.390625 16.78125q10.234375 5.90625 22.328125 5.90625q18.984375 0 28.109375 -10.96875q9.125 -10.984375 9.125 -33.421875l0 -119.625l-64.625 0l0 -4.6875l69.5625 0l0 124.8125q0 48.578125 -42.421875 48.578125z" fill-rule="nonzero"/></g></svg>